<svg width="231" height="380" viewBox="0 0 231 380" fill="none" xmlns="http://www.w3.org/2000/svg">
<path opacity="0.3" d="M156.453 176.932C180.379 183.279 198.689 194.591 211.385 210.867C224.08 226.98 230.428 247.163 230.428 271.414C230.428 304.943 219.116 331.31 196.492 350.516C174.031 369.559 142.863 379.08 102.986 379.08C86.222 379.08 69.1322 377.534 51.7168 374.441C34.3014 371.349 17.2116 366.873 0.447266 361.014V311.941C17.0488 320.568 33.4062 326.997 49.5195 331.229C65.6328 335.46 81.6647 337.576 97.6152 337.576C124.633 337.576 145.385 331.473 159.871 319.266C174.357 307.059 181.6 289.48 181.6 266.531C181.6 245.372 174.357 228.608 159.871 216.238C145.385 203.706 125.773 197.439 101.033 197.439H63.4355V156.912H101.033C123.657 156.912 141.316 151.948 154.012 142.02C166.707 132.091 173.055 118.257 173.055 100.516C173.055 81.7982 167.114 67.4753 155.232 57.5469C143.514 47.4557 126.749 42.4102 104.939 42.4102C90.4538 42.4102 75.4798 44.0378 60.0176 47.293C44.5553 50.5482 28.3607 55.431 11.4336 61.9414V16.5312C31.1276 11.3229 48.6243 7.41667 63.9238 4.8125C79.3861 2.20833 93.0579 0.90625 104.939 0.90625C140.421 0.90625 168.742 9.85807 189.9 27.7617C211.222 45.5026 221.883 69.1029 221.883 98.5625C221.883 118.582 216.268 135.265 205.037 148.611C193.969 161.958 177.775 171.398 156.453 176.932Z" fill="#999696"/>
</svg>
