<?xml version="1.0" encoding="UTF-8"?>
<svg id="Calque_2" data-name="Calque 2" xmlns="http://www.w3.org/2000/svg" viewBox="0 0 368.27 418.8">
  <defs>
    <style>
      .cls-1 {
        fill: #d7d7d7;
      }
    </style>
  </defs>
  <g id="Calque_1-2" data-name="Calque 1">
    <g>
      <path class="cls-1" d="M321.62,100.18c-.05-.02-.11.02-.09.07.5,1.27,7.2,3.81,12.24,9.84,5.74,6.87,8.52,10.41,12.22,17.5,7.47,14.32,4.37,17.88,4.16,17.22.2.66-1.43-3.3-5.95-11.54-2.87-5.23-6.51-10.47-11.01-15.9-4.67-5.63-10.8-10.16-17.75-17.17-1.93-1.95-4.43-4.07-6.32-6.23-9.57-10.97-27.37-20.85-30.62-22.31-3.65-1.64-2.47-2.88-1.51-7.53.67-3.23-9.13-7.37-9.41-7.32-7.87-4.5-23.21-7.78-31.25-8.83-11.81-1.55-44.87-3.39-75.35,4.79-25.37,6.81-47.78,19.66-59.81,30.5-28.75,25.92-48.22,54.07-59.81,90.59-8.59,27.05-8.71,50.93-4.6,75.4,6.53,38.81,20.12,73.81,49.78,100.69,7.2,6.53,14.31,11.86,22.16,17.57,1.29.94,2.76,2.28,4.55,2.74.57.15,1.08-.26,1.14-.85.37-3.78-1.13-6.41-3.13-9.48-.41-.62-.69-1.41-.89-2.25-.12-.53.24-1.04.77-1.11.89-.12,1.75-.12,2.49.07,7.88,1.96,14.63,6.59,19.5,12.56,3.57,4.38,6.38,6.56,1.82,16.54-.29.64,28.49,11.61,44.71,13.65,12.39,1.56,20.94,1.83,38,1.26,10.73-.36,26.31-4.78,36.36-8.1,7.1-2.35,19.02-6.26,34.09-14.81.09-.05-2.2,5.48-11.34,10.63-14.43,8.14-42.24,14.82-52.02,16.69-17.37,3.32-35.05,3.41-44.72,1.97-12.15-1.81-23.52-4.73-40.55-10.45-5.17-1.74-8.33-2.97-16.04-6.56-.42-.19-1.77-.46-2.78-2.04-.66-1.03.05-2.3,1.05-3.23,4.54-4.22,6.41-5.75,2.56-11.75-.53-.82-1.78-2.96-2.28-1.05-.64,2.4-3.52,3.64-5.77,4.16-4.73,1.09-8.87-.98-12.64-3.46-8.57-5.63-16.8-12.12-23.84-19.16-9.76-9.76-18.84-19.77-25.7-31.8-10.44-18.28-16.59-37.62-21.18-58.65-2.24-10.28-4.31-20.3-4.77-30.76-2.03-45.97,2.55-69.56,35.97-118.89,7.5-11.07,15.61-22.94,25.77-31.69,14.55-12.53,18.28-14.81,34.66-23.94,12.93-7.21,40.37-15.37,58.4-17.33,12.99-1.41,25.6-1.74,38.97-1.15,9.01.4,17.33,2.14,27.86,4.24,7.74,1.55,15.75,3.99,25.02,8.26,8.41,3.87,10.38,4.31,10.24,9.3-.11,3.65-3.57,6.11.68,7.86,5.33,2.2,11.03,7.11,20.98,15.73.06.05.14,0,.12-.08-.49-2.08-.8-3.52-1.19-4.94-1.33-4.84-2.71-9.68-4.05-14.52-1.44-5.2-1.28-10.34.82-15.32.6-1.42.5-2.32-.7-3.38-9.4-8.23-18.65-16.63-28.13-24.75-11.1-9.5-24.23-14.67-38.62-16.05-9.79-.94-19.71-.64-29.57-.86-.8-.02-1.6.21-2.62.88.8.44,1.56.97,2.41,1.31,4.2,1.68,8.45,3.22,12.61,4.99.58.25,1.16.52,1.71.83,6.64,3.75,6.88,7.97,1.77,9.7-5.61,1.9-11.38,1.58-17.16,1.13-16.48-1.27-32.97-2.51-49.46-3.7-1.78-.13-3.57.03-5.35.21-.38.04-.68-.15-2.12-.54,1.61-.94,2.51-1.73,3.55-2.04,8.29-2.46,16.7-2.18,25.21-1.27,13.32,1.43,26.57,3.97,40.06,3.15,1.33-.08,2.65-.43,3.98-.68l.16-.91c-1.35-.77-2.66-1.66-4.08-2.24-4.82-1.98-9.69-3.83-14.53-5.77-1.03-.41-2.25-.74-2.96-1.51-.92-1-2.05-2.46-1.92-3.59.13-1.14,1.5-2.48,2.66-3.07,1.44-.73,3.21-.97,4.87-1.1,16.01-1.33,31.83-.34,47.34,4.16,9.76,2.83,18.24,7.93,25.82,14.58,8.9,7.81,17.71,15.71,26.56,23.58.68.6,1.37,1.19,2.09,1.82.02.02.06.03.09,0,1.2-.69,2.31-1.34,3.43-1.95,4.14-2.26,8.54-2.87,12.96-1.29,22.56,2.75,36.27,46.04,3.88,26.79-5.56-4.53-10.87-9.35-16.28-14.05-.99-.86-1.92-1.78-2.88-2.67l-.87.32c-.31,2.63-1.03,5.31-.77,7.88.86,8.58,2.45,16.63,5.69,24.6.92,2.25,1.85,4.34,3.36,5.6,8.37,6.99,17.84.94,26.75,8.31,2.94,2.43,11.24,12.27,16.18,19.53,3.26,4.79,5.37,8.84,8.07,14.46,1.66,3.46,5.62,18.43-.98,5.65-2.06-3.99-17.36-25.81-24.13-31.88-8.89-7.97-16.43-4.78-18.84-5.81ZM310.3,47.88s-.04.08,0,.11c7.79,7.77,14.68,16.11,24.97,20.35,21.02,4.87-2.41-22.23-12.25-22.78-4.34-1.6-8.52-1.15-12.71,2.32Z"/>
      <path class="cls-1" d="M20,289.05c-1.8,1.4-2.93,2.57-4.3,3.24-1.22.6-2.93,1.18-4.02.75-.91-.36-1.85-2.28-1.71-3.38.64-5.23,1.51-10.45,2.54-15.62.87-4.37,2.14-8.66,3.05-13.02.31-1.47.05-3.05.05-4.59l-.96-.37c-.88.96-1.9,1.82-2.6,2.89-1.49,2.25-2.66,4.72-4.27,6.87-.72.96-2.29,2.02-3.28,1.85-.96-.16-2.1-1.71-2.41-2.86-1.38-5.1-.55-10.17.81-15.16,2.37-8.7,5.14-17.31,7.1-26.11,1.37-6.15,1.85-12.53,2.31-18.83.14-1.88-1.14-3.85-1.77-5.78-1.48,1.1-2.98,2.17-4.42,3.32-.42.34-.69.87-1.01,1.33-.84,1.24-1.81,2.99-3.41,1.93C.66,204.86,0,202.96,0,201.61c0-8.62,2.5-16.69,5.82-24.55,4.67-11.07,11.18-21.02,18.58-30.42,1.07-1.36,2.05-2.79,3.08-4.18-.18-.19-.37-.38-.55-.57-.69.6-1.43,1.15-2.06,1.8-2.72,2.82-5.36,5.71-8.12,8.49-1.64,1.66-3.62,2.85-6.02,1.72-2.36-1.12-3.53-3.3-3.05-5.77.96-4.9,2.04-9.81,3.56-14.56,1.18-3.7,3.21-7.12,4.65-10.75.46-1.17.64-2.73.27-3.9-.81-2.57-.02-3.96,2.72-3.71,1.37.12,2.75.54,4.04,1.04,4.23,1.64,8.19,1.19,12.03-1.15,2.62-1.6,5.34-3.05,7.96-4.65,4.45-2.71,6.88-6.99,8.67-11.66.25-.66-.24-2.09-.84-2.49-2.49-1.65-2.63-3.82-1.98-6.38,1.22-4.76,3.72-8.72,7.48-11.85,3.36-2.8,6.81-5.5,10.26-8.2,4.23-3.3,7.67-7.22,10.43-12.58-2.21.26-3.81.5-5.42.63-3.42.27-5.19-2.02-3.36-4.87,2.24-3.48,4.54-7.34,7.79-9.68,12-8.63,24.86-15.74,39.56-18.81,2.14-.45,4.37-1.14,6.85,1.14-1.68.98-3.04,2.05-4.58,2.62-13.04,4.78-25.99,9.79-37.44,17.86-2.28,1.61-4.16,3.79-6.21,5.72l.32.93c.63.06,1.26.13,1.9.19,4.59.44,5.95,2.49,4.18,6.81-1.98,4.81-5.03,8.91-9.13,12.16-2.63,2.08-5.44,3.96-7.91,6.21-2.81,2.57-5.5,5.31-7.92,8.24-2.44,2.96-1.96,4.2.2,7.34.9,1.31,1.25,3.63.81,5.15-2.03,7.08-5.89,12.98-12.46,16.74-3.14,1.8-6.29,3.64-9.58,5.14-3.27,1.49-6.76,1.94-10.38,1.14-.77-.17-2.17.2-2.52.78-4.46,7.4-7.7,15.28-8.89,23.9-.12.87-.02,1.77.6,2.98,2.71-2.76,5.33-5.6,8.15-8.24,1.68-1.57,3.49-3.15,5.53-4.14,3.68-1.79,5.8-.35,5.2,3.63-.39,2.57-1.42,5.21-2.77,7.45-5.57,9.24-11.67,18.19-16.97,27.58-2.57,4.55-3.87,9.82-5.61,14.81-.44,1.26-.38,2.7-.54,3.95.43.22.59.38.73.36,6.96-.78,9.36,1.12,9.49,8.32.23,12.52-2.5,24.57-6.21,36.46-1.77,5.68-3.29,11.44-4.76,17.2-.42,1.65-.28,3.44-.4,5.16l.75.25c1.02-1.57,2.01-3.17,3.06-4.72.78-1.16,1.42-2.58,2.51-3.31,1.27-.86,3.22-1.83,4.38-1.41,1.3.48,2.86,2.45,2.88,3.8.08,3.96-.16,8.01-.97,11.88-1.1,5.27-2.89,10.39-4.24,15.62-.42,1.63-.36,3.38-.59,5.77,1.44-1.09,2.22-1.69,3.02-2.27,3.69-2.7,6.68-1.87,7.81,2.52,1.02,3.95.95,8.18,2.18,12.08,1.77,5.61,4.39,10.33,6.66,15.44,3.8,8.54,8.33,16.22,13.21,22.12,8,9.67,11.75,12.88,17.74,19.15,8.14,8.52,16.42,14.48,27.58,23.14,18.43,14.3,44.37,22.37,63.06,28.05,13.02,3.96,29.16,4.94,41.62,3.57,20.3-2.23,29.3-5.98,31.91-7.99,0,0-2.02,3.51-3.82,4.42-19.02,9.64-52.34,10.98-72.77,4.85-11.36-2.75-31.84-10.15-49.73-20.37-10.02-5.73-24.59-16.76-36.29-27.54-11.52-10.63-20.42-20.9-22.31-23.58-9.19-13-9.15-15.09-14.1-24.54-3.28-6.26-6.44-12.82-7.13-19.71-.33-3.27-1.01-6.5-1.61-10.29Z"/>
    </g>
  </g>
</svg>