<svg width="1619" height="159" viewBox="0 0 1619 159" fill="none" xmlns="http://www.w3.org/2000/svg">
<path d="M147.576 79.6436C147.576 64.3701 138.929 52.0166 123.655 52.0166H59.1924V107.271H123.655C138.929 107.271 147.576 94.8047 147.576 79.6436ZM0.344727 4.1748H134.661C176.102 3.61328 206.873 38.4277 206.536 79.6436C206.873 120.635 176.102 155.674 134.661 155.112H0.344727V4.1748ZM224.056 3.9502H282.903V154.888H224.056V3.9502ZM372.972 74.0283H444.847C448.328 74.0283 451.36 72.793 453.831 70.3223C456.414 67.7393 457.649 64.707 457.649 61.2256C457.649 57.6318 456.414 54.5996 453.831 52.1289C451.36 49.5459 448.328 48.3105 444.847 48.3105H372.972V74.0283ZM314.124 4.1748H459.559C490.667 3.83789 517.059 30.0049 516.609 61.2256C517.059 92.334 490.667 118.726 459.559 118.276H372.972V155.112H314.124V4.1748ZM679.9 103.34H591.517V154.888H532.669V3.9502H591.517V55.498H679.9V3.9502H738.86V154.888H679.9V103.34ZM888.113 155.112H829.266V52.0166H759.3V4.1748H958.079V52.0166H888.113V155.112ZM1065.67 0.244141C1122.49 0.244141 1168.65 16.8652 1168.65 73.916V84.9219C1168.88 141.973 1122.38 158.481 1065.67 158.594C1008.84 158.481 962.347 141.973 962.571 84.9219V73.916C962.347 16.7529 1008.84 0.356445 1065.67 0.244141ZM1109.8 81.2158V77.5098C1110.14 52.915 1089.7 48.4229 1065.67 48.0859C1041.52 48.4229 1021.08 52.915 1021.42 77.5098V81.2158C1021.08 105.923 1041.52 110.415 1065.67 110.752C1089.7 110.415 1110.14 105.923 1109.8 81.2158ZM1333.51 83.9111V3.9502H1392.47V154.888H1326.21L1245.13 62.6855V154.888H1186.28V3.9502H1267.25L1333.51 83.9111ZM1516.01 97.8369V72.0068H1618.54V158.594H1589.12L1586.2 135.122C1568.68 152.417 1542.06 158.594 1516.46 158.594C1459.63 158.369 1413.14 141.973 1413.36 84.9219V73.916C1413.14 16.7529 1459.63 0.356445 1516.46 0.244141C1568.79 0.244141 1611.92 14.5068 1618.54 61.001H1555.99C1552.28 55.9473 1546.89 52.5781 1539.93 50.7812C1532.97 48.9844 1525.11 48.0859 1516.46 48.0859C1492.31 48.4229 1471.87 52.915 1472.21 77.5098V81.2158C1471.87 106.035 1492.31 110.303 1516.46 110.64C1539.71 110.64 1554.53 109.292 1563.4 97.8369H1516.01Z" fill="#D9D9D9"/>
</svg>
