<svg width="1680" height="166" viewBox="0 0 1680 166" fill="none" xmlns="http://www.w3.org/2000/svg">
<g opacity="0.2" clip-path="url(#clip0_335_16)">
<path d="M1680 63.9598C1659.73 63.9598 1640.17 63.9934 1620.6 63.8926C1619.12 63.8926 1617.27 63.0523 1616.26 61.9768C1608.82 54.0449 1598.99 51.6922 1588.79 51.8266C1577.67 51.961 1566.29 52.3643 1555.59 54.8515C1542.96 57.8092 1538.55 66.2117 1538.58 81.4706C1538.58 96.7968 1543.06 104.628 1555.65 108.123C1574.04 113.232 1592.76 112.728 1611.28 108.291C1614.78 107.451 1617.88 104.964 1621.18 103.25C1621.01 102.611 1620.81 101.939 1620.64 101.301H1578.82V73.4042H1679.7V161.899C1670.71 161.899 1661.58 162.101 1652.52 161.664C1651.18 161.597 1649.26 158.538 1648.85 156.589C1647.81 151.816 1647.47 146.876 1646.87 142.103C1646.13 141.901 1645.42 141.532 1645.18 141.7C1615.62 164.958 1581.45 164.42 1546.73 159.076C1536.12 157.429 1525.49 154.001 1515.65 149.665C1497.5 141.666 1486.09 127.55 1481.75 108.493C1477.64 90.4445 1477.57 72.1943 1481.75 54.1793C1488.45 25.6108 1509.53 11.3601 1536.8 5.37751C1567.47 -1.37811 1598.52 -1.54616 1629.09 7.05801C1659.06 15.4941 1674.58 32.7361 1679.93 63.9598H1680Z" fill="black"/>
<path d="M1122.21 163.714C1099.15 163.412 1076.45 161.395 1055.54 150.371C1037.73 140.994 1026.99 126.306 1023.52 107.283C1020.02 88.2599 1019.78 68.9677 1025.61 50.0453C1031.87 29.6776 1045.91 16.4352 1065.68 9.81404C1102.51 -2.52084 1139.85 -2.58806 1176.93 9.30989C1202.92 17.6452 1218.98 38.8195 1221.51 65.6403C1223.05 81.9748 1223.16 98.0404 1218.51 113.904C1212.35 134.944 1198 148.926 1177.33 154.976C1159.55 160.185 1140.93 162.437 1122.65 166C1122.48 165.227 1122.35 164.487 1122.18 163.714H1122.21ZM1091.77 82.3781C1093.42 91.7217 1094.2 101.133 1096.89 109.972C1100.43 121.5 1108.1 125.567 1122.35 125.5C1135.91 125.433 1143.46 121.299 1147.06 110.006C1152.92 91.7217 1152.88 73.0681 1147.06 54.7507C1143.49 43.5249 1135.75 39.2228 1122.38 39.1556C1108.34 39.0884 1100.46 43.256 1096.92 54.7843C1094.2 63.6237 1093.46 73.0345 1091.77 82.3781Z" fill="black"/>
<path d="M1391.54 0.806612H1450.06V161.093C1429.25 161.093 1408.55 161.295 1387.87 160.824C1385.45 160.757 1382.75 157.396 1380.77 154.942C1359.49 128.558 1338.28 102.107 1317.13 75.589C1315.31 73.3371 1313.97 70.5811 1312.38 68.0939C1311.58 68.6317 1310.8 69.1358 1309.99 69.6736V160.488H1251.81C1251.57 157.429 1251.24 154.707 1251.24 151.985C1251.2 104.695 1251.37 57.4059 1251.07 10.1166C1251.04 2.25184 1252.99 -0.134469 1259.99 0.0335813C1281 0.504122 1302.05 -0.134469 1323.06 0.504122C1327.13 0.638562 1332.28 3.29376 1334.94 6.72198C1353.63 30.6187 1371.78 54.986 1391.51 81.101V0.806612H1391.54Z" fill="black"/>
<path d="M992.376 53.7088H923.856V162.101H863.114C863.114 152.858 863.114 144.153 863.114 135.482C863.114 111.753 862.744 87.991 863.316 64.2623C863.552 55.2548 860.724 53.2718 853.282 53.5071C836.75 54.0449 820.218 53.6752 803.686 53.6752C800.689 53.6752 797.658 53.6752 794.123 53.6752V0.873779H992.376V53.7088Z" fill="black"/>
<path d="M625.973 162.101H562.1V0.571452H625.636V52.1293H701.867V0.437012H765.471V161.799H702.17V110.241H625.973V162.068V162.101ZM617.757 102.612H710.217V155.043C725.436 155.043 739.679 155.211 753.922 154.808C755.504 154.774 758.164 151.581 758.265 149.766C758.77 141.969 758.501 134.138 758.501 126.307C758.501 89.3356 758.535 52.3981 758.434 15.4271C758.434 12.3014 760.083 7.62956 754.157 7.56234C739.679 7.4279 725.201 7.52873 709.779 7.52873V59.826H617.69V7.46151C603.616 7.46151 590.215 7.69678 576.847 7.36068C570.955 7.22624 569.103 9.14201 569.17 14.7885C569.44 37.9794 569.271 61.1704 569.271 84.3949C569.271 105.435 569.17 126.475 569.406 147.515C569.406 149.968 571.258 154.539 572.369 154.573C587.319 155.043 602.302 154.875 617.724 154.875V102.612H617.757Z" fill="black"/>
<path d="M300.781 162.101H232.564V1.34448H300.781V162.135V162.101ZM293.542 8.30176C277.885 8.30176 263.609 8.67147 249.4 8.13371C242.093 7.86483 239.837 9.7806 239.871 16.9395C240.14 60.3973 239.871 103.855 239.804 147.313C239.804 149.598 240.107 151.917 240.309 155.01C255.056 155.01 269.299 154.64 283.508 155.144C291.017 155.413 293.542 153.564 293.475 146.002C293.138 103.082 293.475 60.1621 293.508 17.2084C293.508 14.6204 293.508 12.0325 293.508 8.26815L293.542 8.30176Z" fill="black"/>
<path d="M0 161.866V2.65507C3.19872 2.52063 5.95972 2.25175 8.68704 2.25175C48.1828 2.25175 87.7122 2.95756 127.174 2.05009C174.078 0.974571 204.92 39.4581 203.91 83.5881C203.034 121.231 183.236 149.43 150.34 159.48C144.01 161.429 137.141 162.336 130.508 162.37C88.756 162.639 47.038 162.504 5.2863 162.471C3.67011 162.471 2.05391 162.068 0.0336707 161.799L0 161.866ZM7.84527 153.732C9.56248 154.001 10.6736 154.304 11.7511 154.304C51.7856 154.304 91.8537 154.808 131.854 153.968C141.552 153.766 152.091 150.976 160.677 146.338C188.792 131.146 202.193 96.2591 193.91 63.5901C185.054 28.7701 162.124 10.5198 126.972 10.4862C90.3048 10.419 53.6038 10.4862 16.9364 10.4862C13.9733 10.4862 11.0103 10.7551 7.84527 10.8895V153.699V153.732Z" fill="black"/>
<path d="M55.9941 49.3394C79.1259 49.3394 101.517 48.9696 123.874 49.6082C128.723 49.7427 134.178 52.5659 138.083 55.7253C147.814 63.6236 150.541 80.2606 145.356 93.7046C140.811 105.468 132.09 111.047 117.578 111.081C97.2071 111.182 76.8026 111.081 55.9941 111.081V49.3394ZM64.2098 57.4058V102.981C84.0755 102.981 103.335 103.384 122.595 102.813C133.167 102.51 139.598 93.4693 139.767 80.7648C139.969 67.6904 134.144 57.9435 124.11 57.5738C104.312 56.868 84.4796 57.3722 64.2098 57.3722V57.4058Z" fill="black"/>
<path d="M394.115 125.13V162.135H329.434V1.04192C331.488 0.840256 333.104 0.571376 334.72 0.571376C381.219 0.571376 427.752 0.235275 474.251 0.705816C501.121 0.974696 522.905 18.183 530.582 43.5922C542.738 83.7562 515.363 124.055 474.824 124.996C451.288 125.534 427.752 125.13 404.216 125.13C401.186 125.13 398.122 125.13 394.115 125.13ZM386.101 116.761C390.277 116.761 393.307 116.761 396.304 116.761C421.792 116.761 447.315 116.761 472.803 116.761C492.669 116.761 507.989 107.955 518.158 90.3438C538.091 55.8935 515.868 7.96559 470.581 8.50335C428.83 9.0075 387.078 8.77223 345.326 8.43613C338.255 8.36891 336.37 10.688 336.437 17.8469C336.74 60.3973 336.572 102.981 336.605 145.531C336.605 148.355 336.976 151.144 337.245 154.64C351.454 154.64 364.889 154.304 378.256 154.774C384.788 155.01 386.472 152.455 386.202 146.136C385.798 136.625 386.101 127.113 386.101 116.694V116.761Z" fill="black"/>
<path d="M387.043 79.2524V46.2473C391.656 46.2473 396 46.2473 400.343 46.2473C419.94 46.2473 439.536 46.2473 459.099 46.2809C466.439 46.2809 473.139 49.205 474.924 56.2967C476.203 61.3718 475.261 68.0266 472.803 72.6648C471.018 75.9922 465.159 78.8827 461.052 78.9835C436.741 79.5549 412.397 79.2524 387.01 79.2524H387.043ZM394.35 54.1793C394.35 59.288 393.879 63.2204 394.552 66.9511C394.855 68.6652 397.448 71.186 399.03 71.2196C419.401 71.4885 439.772 71.7237 460.143 70.9843C463.072 70.8835 468.122 65.6067 468.021 62.8843C467.92 59.893 463.038 54.717 460.075 54.6162C438.661 53.9104 417.179 54.2465 394.35 54.2465V54.1793Z" fill="black"/>
</g>
<defs>
<clipPath id="clip0_335_16">
<rect width="1680" height="166" fill="white"/>
</clipPath>
</defs>
</svg>
