<svg width="133" height="260" viewBox="0 0 133 260" fill="none" xmlns="http://www.w3.org/2000/svg">
<g clip-path="url(#clip0_454_5)">
<path d="M132.72 229.08C126.7 229.08 120.89 229.09 115.08 229.05C114.64 229.05 114.09 228.79 113.79 228.47C111.58 226.05 108.66 225.34 105.63 225.37C102.33 225.41 98.9505 225.53 95.7705 226.29C92.0205 227.19 90.7105 229.75 90.7205 234.41C90.7205 239.08 92.0505 241.47 95.7905 242.54C101.25 244.1 106.81 243.94 112.31 242.59C113.35 242.33 114.27 241.58 115.25 241.05C115.2 240.85 115.14 240.65 115.09 240.45H102.67V231.94H132.63V258.93C129.96 258.93 127.25 259 124.56 258.86C124.16 258.84 123.59 257.91 123.47 257.32C123.16 255.86 123.06 254.36 122.88 252.9C122.66 252.84 122.45 252.72 122.38 252.78C113.6 259.87 103.45 259.71 93.1405 258.08C89.9905 257.58 86.8305 256.54 83.9105 255.21C78.5205 252.77 75.1305 248.46 73.8405 242.65C72.6205 237.14 72.6005 231.58 73.8405 226.08C75.8305 217.37 82.0905 213.02 90.1905 211.19C99.3005 209.13 108.52 209.07 117.6 211.7C126.5 214.27 131.11 219.54 132.7 229.06L132.72 229.08Z" fill="#C3C3C3"/>
<path d="M102.96 196.04C96.1102 195.95 89.3702 195.34 83.1602 192.01C77.8702 189.18 74.6802 184.75 73.6502 179.01C72.6102 173.27 72.5402 167.46 74.2702 161.74C76.1302 155.59 80.3002 151.6 86.1702 149.6C97.1102 145.87 108.2 145.85 119.21 149.45C126.93 151.97 131.7 158.35 132.45 166.45C132.91 171.37 132.94 176.22 131.56 181.01C129.73 187.36 125.47 191.57 119.33 193.4C114.05 194.97 108.52 195.65 103.09 196.73C103.04 196.5 103 196.27 102.95 196.04H102.96ZM93.9302 171.49C94.4202 174.31 94.6502 177.15 95.4502 179.81C96.5002 183.29 98.7802 184.51 103.01 184.49C107.04 184.47 109.28 183.22 110.35 179.82C112.09 174.3 112.08 168.67 110.35 163.15C109.29 159.76 106.99 158.46 103.02 158.44C98.8502 158.42 96.5102 159.68 95.4602 163.15C94.6502 165.82 94.4302 168.66 93.9302 171.47V171.49Z" fill="#C3C3C3"/>
<path d="M42.8498 213.3H60.2298V255.62C54.0498 255.62 47.8998 255.67 41.7598 255.55C41.0398 255.54 40.2398 254.65 39.6498 254C33.3298 247.04 27.0298 240.05 20.7498 233.05C20.2098 232.45 19.8098 231.73 19.3398 231.07C19.0998 231.21 18.8698 231.35 18.6298 231.49V255.47H1.35978C1.28978 254.66 1.18978 253.94 1.18978 253.22C1.17978 240.73 1.22978 228.25 1.13978 215.76C1.12978 213.69 1.70977 213.05 3.78977 213.1C10.0298 213.23 16.2798 213.06 22.5198 213.22C23.7298 213.25 25.2598 213.96 26.0498 214.86C31.5998 221.17 36.9898 227.61 42.8498 234.49V213.3Z" fill="#C3C3C3"/>
<path d="M60.2198 165.21H39.8698V194.08H21.8298C21.8298 191.62 21.8298 189.3 21.8298 186.99C21.8298 180.67 21.7198 174.34 21.8898 168.02C21.9598 165.62 21.1198 165.09 18.9098 165.15C13.9998 165.29 9.08984 165.19 4.17984 165.19C3.28984 165.19 2.38984 165.19 1.33984 165.19V151.13H60.2198V165.2V165.21Z" fill="#C3C3C3"/>
<path d="M91.3499 123.47H72.3799V73.6298H91.2499V89.5398H113.89V73.5898H132.78V123.38H113.98V107.48H91.3499V123.47ZM88.8999 105.11H116.36V121.28C120.88 121.28 125.11 121.33 129.34 121.21C129.81 121.2 130.6 120.22 130.63 119.65C130.78 117.25 130.7 114.83 130.7 112.41C130.7 101.01 130.71 89.5998 130.68 78.1998C130.68 77.2398 131.17 75.7898 129.41 75.7698C125.11 75.7198 120.81 75.7598 116.23 75.7598V91.8998H88.8799V75.7498C84.6999 75.7498 80.7199 75.8198 76.7499 75.7198C74.9999 75.6798 74.4499 76.2698 74.4699 78.0198C74.5499 85.1798 74.4999 92.3398 74.4999 99.4898C74.4999 105.98 74.4699 112.47 74.5399 118.97C74.5399 119.73 75.0899 121.13 75.4199 121.14C79.8599 121.29 84.3099 121.24 88.8899 121.24V105.12L88.8999 105.11Z" fill="#C3C3C3"/>
<path d="M0 48.25V2.23004C0.95 2.19004 1.77 2.12004 2.58 2.12004C14.31 2.12004 26.05 2.32004 37.77 2.06004C51.7 1.75004 60.86 12.87 60.56 25.63C60.3 36.51 54.42 44.66 44.65 47.57C42.77 48.13 40.73 48.4 38.76 48.41C26.36 48.48 13.97 48.45 1.57 48.44C1.09 48.44 0.61 48.32 0.01 48.25H0ZM2.33 45.9C2.84 45.98 3.17 46.06 3.49 46.06C15.38 46.06 27.28 46.21 39.16 45.96C42.04 45.9 45.17 45.1 47.72 43.76C56.07 39.37 60.05 29.28 57.59 19.84C54.96 9.78004 48.15 4.50004 37.71 4.48004C26.82 4.46004 15.92 4.48004 5.03 4.48004C4.15 4.48004 3.27 4.56004 2.33 4.60004V45.88V45.9Z" fill="#C3C3C3"/>
<path d="M19.22 111.02V121.58H0V75.6101C0.61 75.5601 1.09 75.4701 1.57 75.4701C15.38 75.4701 29.2 75.3701 43.01 75.5101C50.99 75.5901 57.46 80.5001 59.74 87.7501C63.35 99.2201 55.22 110.71 43.18 110.98C36.19 111.14 29.2 111.01 22.21 111.02C21.31 111.02 20.4 111.02 19.21 111.02H19.22ZM16.84 108.64C18.08 108.64 18.98 108.64 19.87 108.64C27.44 108.64 35.02 108.64 42.59 108.64C48.49 108.64 53.04 106.13 56.06 101.1C61.98 91.2701 55.38 77.5801 41.93 77.7401C29.53 77.8901 17.13 77.8201 4.73 77.7201C2.63 77.7001 2.07 78.3602 2.09 80.4102C2.18 92.5602 2.13 104.71 2.14 116.86C2.14 117.66 2.25 118.47 2.33 119.46C6.55 119.46 10.54 119.36 14.51 119.5C16.45 119.57 16.95 118.83 16.87 117.04C16.75 114.33 16.84 111.61 16.84 108.64Z" fill="#C3C3C3"/>
<path d="M113.03 50.46H92.7695V0H113.03V50.46ZM110.88 2.18C106.23 2.18 101.99 2.3 97.7695 2.13C95.5995 2.05 94.9295 2.65 94.9395 4.89C95.0195 18.53 94.9395 32.17 94.9195 45.81C94.9195 46.53 95.0095 47.25 95.0695 48.23C99.4495 48.23 103.68 48.12 107.9 48.28C110.13 48.37 110.88 47.78 110.86 45.41C110.76 31.94 110.86 18.46 110.87 4.99C110.87 4.18 110.87 3.36 110.87 2.18H110.88Z" fill="#C3C3C3"/>
<path d="M16.6299 16.1201C23.4999 16.1201 30.1499 16.0101 36.7899 16.2001C38.2299 16.2401 39.8499 17.0801 41.0099 18.0201C43.8999 20.3701 44.7099 25.32 43.1699 29.32C41.8199 32.82 39.2299 34.4801 34.9199 34.4901C28.8699 34.5201 22.8099 34.4901 16.6299 34.4901V16.1001V16.1201ZM19.0699 18.5301V32.09C24.9699 32.09 30.6899 32.2101 36.4099 32.0401C39.5499 31.9501 41.4599 29.26 41.5099 25.48C41.5699 21.59 39.8399 18.69 36.8599 18.58C30.9799 18.37 25.0899 18.5201 19.0699 18.5201V18.5301Z" fill="#C3C3C3"/>
<path d="M16.9797 98.0798V88.2598C18.3497 88.2598 19.6397 88.2598 20.9297 88.2598C26.7497 88.2598 32.5697 88.2598 38.3797 88.2698C40.5597 88.2698 42.5497 89.1398 43.0797 91.2498C43.4597 92.7598 43.1797 94.7398 42.4497 96.1198C41.9197 97.1098 40.1797 97.9698 38.9597 97.9998C31.7397 98.1698 24.5097 98.0798 16.9697 98.0798H16.9797ZM19.1597 90.6198C19.1597 92.1398 19.0197 93.3098 19.2197 94.4198C19.3097 94.9298 20.0797 95.6798 20.5497 95.6898C26.5997 95.7698 32.6497 95.8398 38.6997 95.6198C39.5697 95.5898 41.0697 94.0198 41.0397 93.2098C41.0097 92.3198 39.5597 90.7798 38.6797 90.7498C32.3197 90.5398 25.9397 90.6398 19.1597 90.6398V90.6198Z" fill="#C3C3C3"/>
</g>
<defs>
<clipPath id="clip0_454_5">
<rect width="132.78" height="259.02" fill="white"/>
</clipPath>
</defs>
</svg>
