<svg width="1592" height="1197" viewBox="0 0 1592 1197" fill="none" xmlns="http://www.w3.org/2000/svg">
<rect width="1592" height="1197" fill="#D9D9D9"/>
<path d="M1252.18 504.502H1419.66V546.006H1198.23V504.502C1228.66 472.439 1255.27 444.118 1278.06 419.542C1300.85 394.965 1316.55 377.631 1325.18 367.54C1341.45 347.683 1352.44 331.651 1358.14 319.444C1363.83 307.074 1366.68 294.46 1366.68 281.602C1366.68 261.257 1360.66 245.306 1348.62 233.75C1336.73 222.194 1320.38 216.417 1299.54 216.417C1284.73 216.417 1269.19 219.102 1252.91 224.473C1236.64 229.844 1219.38 237.982 1201.15 248.887V199.083C1217.92 191.107 1234.36 185.085 1250.47 181.016C1266.75 176.947 1282.78 174.913 1298.57 174.913C1334.21 174.913 1362.86 184.434 1384.5 203.477C1406.31 222.357 1417.22 247.178 1417.22 277.94C1417.22 293.565 1413.56 309.19 1406.23 324.815C1399.07 340.44 1387.35 357.693 1371.08 376.573C1361.96 387.152 1348.7 401.801 1331.28 420.518C1314.03 439.236 1287.66 467.23 1252.18 504.502Z" fill="#999696" fill-opacity="0.25"/>
</svg>
