<svg width="1592" height="1197" viewBox="0 0 1592 1197" fill="none" xmlns="http://www.w3.org/2000/svg">
<rect width="1592" height="1197" fill="#C3C3C3"/>
<path d="M1353.06 682.496H1520.54V724H1299.11V682.496C1329.55 650.432 1356.16 622.112 1378.94 597.535C1401.73 572.958 1417.44 555.624 1426.06 545.533C1442.34 525.676 1453.32 509.645 1459.02 497.438C1464.72 485.068 1467.57 472.454 1467.57 459.596C1467.57 439.251 1461.54 423.3 1449.5 411.744C1437.62 400.188 1421.26 394.41 1400.43 394.41C1385.62 394.41 1370.07 397.096 1353.8 402.467C1337.52 407.838 1320.27 415.976 1302.04 426.881V377.076C1318.8 369.101 1335.24 363.079 1351.36 359.01C1367.63 354.941 1383.66 352.906 1399.45 352.906C1435.1 352.906 1463.74 362.428 1485.39 381.471C1507.2 400.351 1518.1 425.172 1518.1 455.934C1518.1 471.559 1514.44 487.184 1507.12 502.809C1499.96 518.434 1488.24 535.686 1471.96 554.566C1462.85 565.146 1449.58 579.794 1432.17 598.512C1414.91 617.229 1388.55 645.224 1353.06 682.496Z" fill="#999696" fill-opacity="0.25"/>
</svg>
