<svg width="416" height="641" viewBox="0 0 416 641" fill="none" xmlns="http://www.w3.org/2000/svg">
<g clip-path="url(#clip0_448_88)">
<path d="M459.484 114.581C459.411 114.578 459.349 114.653 459.396 114.705C460.561 116.023 470.309 116.171 479.313 121.265C489.569 127.07 494.622 130.138 502.313 137.1C517.843 151.161 515.254 156.82 514.713 156.113C515.241 156.824 511.513 152.746 502.289 144.751C496.433 139.678 489.571 134.928 481.513 130.324C473.152 125.552 463.339 122.748 451.452 117.302C448.15 115.786 444.037 114.312 440.701 112.525C423.799 103.432 396.631 99.25 391.81 98.9024C386.396 98.5117 387.428 96.4968 386.79 90.4531C386.351 86.2537 371.921 85.5232 371.577 85.7058C359.511 83.6975 338.222 86.425 327.336 88.6639C311.341 91.9435 267.581 104.147 231.244 127.344C200.999 146.654 177.056 171.978 165.802 190.34C138.914 234.241 125.004 276.788 124.743 326.021C124.543 362.49 134.076 391.427 149.352 419.232C173.596 463.327 205.479 499.731 254.976 519.3C266.993 524.057 278.406 527.401 290.936 530.881C292.996 531.455 295.452 532.435 297.968 532.21C298.77 532.143 299.268 531.424 299.106 530.684C298.054 525.951 295.035 523.424 291.187 520.583C290.402 520.012 289.718 519.179 289.116 518.25C288.745 517.661 289.007 516.887 289.668 516.571C290.777 516.038 291.896 515.663 292.936 515.569C303.984 514.501 314.645 517.156 323.403 522.251C329.825 525.991 334.366 527.402 332.482 541.464C332.365 542.364 374.261 543.073 396.192 538.461C412.945 534.941 424.179 531.536 446.144 523.401C459.958 518.282 478.435 506.136 490.164 497.734C498.448 491.792 512.37 481.861 528.508 464.941C528.605 464.842 527.869 472.53 518.067 482.749C502.595 498.893 469.123 519.11 457.158 525.641C435.905 537.237 412.939 545.063 399.773 547.541C383.231 550.655 367.253 552.085 342.775 552.599C335.342 552.75 330.732 552.642 319.244 551.664C318.62 551.618 316.754 551.88 314.799 550.41C313.522 549.452 313.931 547.606 314.854 546.045C319.049 538.959 320.861 536.292 313.418 530.715C312.395 529.954 309.901 527.911 310.025 530.44C310.166 533.622 306.922 536.379 304.206 537.99C298.494 541.373 292.268 540.676 286.356 539.321C272.922 536.252 259.581 531.993 247.565 526.55C230.906 519.004 215.031 510.859 201.224 499.302C180.224 481.747 164.375 461.037 149.87 437.603C142.784 426.146 136.025 414.929 131.182 402.477C109.889 347.758 106.276 317.225 129.741 242.97C135.007 226.306 140.743 208.409 150.411 193.39C164.258 171.884 168.186 167.498 185.792 149.306C199.69 134.941 232.08 113.095 254.743 102.855C271.072 95.4801 287.344 89.5774 304.979 84.4558C316.864 81.0073 328.395 79.4808 342.947 77.4252C353.646 75.922 365.058 75.3775 378.852 76.4966C391.364 77.5073 394.105 77.1797 395.948 83.2767C397.286 87.7397 393.782 92.2254 400.022 92.4873C407.849 92.8222 417.258 96.2736 433.701 102.358C433.799 102.392 433.883 102.297 433.825 102.209C432.343 99.9065 431.356 98.2999 430.272 96.7525C426.578 91.4786 422.818 86.2264 419.111 80.9568C415.128 75.2954 413.25 69.0082 413.962 62.0679C414.166 60.0884 413.671 59.0434 411.679 58.285C396.11 52.4326 380.667 46.309 365.038 40.6246C346.741 33.978 327.561 33.4548 308.278 38.066C295.159 41.2018 282.374 45.8942 269.457 49.9314C268.408 50.2563 267.46 50.8837 266.405 52.1393C267.624 52.3224 268.828 52.6318 270.072 52.6721C276.218 52.8711 282.373 52.879 288.503 53.2044C289.359 53.2537 290.223 53.3271 291.065 53.462C301.226 55.1 303.25 60.0998 297.304 64.4226C290.776 69.1693 283.139 71.3005 275.436 73.2788C253.479 78.9352 231.521 84.6323 209.584 90.3898C207.215 91.0094 204.951 91.9842 202.708 92.9788C202.23 93.193 201.763 93.0941 199.731 93.2508C201.444 91.4112 202.294 90.0628 203.522 89.2339C213.309 82.6402 224.365 79.3084 235.806 76.695C253.717 72.6113 271.987 69.9008 289.205 63.0213C290.903 62.3441 292.479 61.3446 294.108 60.4617L293.947 59.2912C291.878 58.949 289.812 58.4442 287.729 58.3624C280.655 58.071 273.568 57.9587 266.484 57.7245C264.977 57.6781 263.256 57.8114 262.02 57.1899C260.417 56.3818 258.354 55.109 258.065 53.6854C257.772 52.2497 259.01 50.031 260.28 48.811C261.858 47.2995 264.063 46.2367 266.17 45.355C286.46 36.7588 307.445 31.0517 329.451 29.7257C343.297 28.8892 356.4 31.3571 368.96 36.0927C383.709 41.6553 398.376 47.366 413.084 53.023C414.212 53.452 415.35 53.8645 416.542 54.3123C416.576 54.3278 416.632 54.3224 416.659 54.273C417.94 52.9147 419.121 51.644 420.331 50.4173C424.8 45.8768 430.277 43.2186 436.669 43.2006C467.137 36.6809 502.54 83.0606 452.587 73.9123C443.515 70.8595 434.651 67.3467 425.705 64.0228C424.068 63.4146 422.485 62.7077 420.875 62.0501L419.873 62.8169C420.536 66.1334 420.687 69.6894 422.068 72.6846C426.668 82.6876 432.003 91.7309 439.453 99.9573C441.563 102.277 443.621 104.399 446.097 105.265C459.823 110.067 469.689 98.6154 484.272 103.641C489.083 105.298 503.875 113.578 513.248 120.203C519.433 124.574 523.821 128.552 529.615 134.172C533.178 137.633 544.405 154.012 530.632 141.434C526.333 137.507 497.573 117.791 486.302 113.403C471.501 107.643 462.986 114.792 459.432 114.598L459.484 114.581ZM423.535 56.2593C423.535 56.2593 423.515 56.3735 423.58 56.3924C436.868 62.391 449.216 69.472 464.325 70.1097C493.649 66.8264 452.169 44.2722 439.143 47.9015C432.847 47.8603 427.592 50.2289 423.548 56.2549L423.535 56.2593Z" fill="#D7D7D7"/>
<path d="M143.692 474.677C141.918 477.156 140.922 479.064 139.412 480.473C138.068 481.731 136.078 483.179 134.486 483.134C133.156 483.096 131.154 481.184 130.889 479.792C129.6 473.187 128.614 466.493 127.856 459.79C127.215 454.124 127.127 448.381 126.541 442.71C126.348 440.796 125.369 438.999 124.744 437.136L123.345 437.107C122.589 438.653 121.611 440.138 121.135 441.738C120.109 445.11 119.589 448.608 118.367 451.911C117.819 453.387 116.207 455.354 114.85 455.581C113.536 455.806 111.424 454.429 110.554 453.173C106.689 447.606 105.712 441.111 105.456 434.482C105.01 422.924 105.12 411.301 104.1 399.801C103.387 391.764 101.422 383.837 99.4647 376.016C98.884 373.681 96.4193 371.856 94.8165 369.797C93.3372 371.773 91.8198 373.722 90.4129 375.742C90.0044 376.336 89.8681 377.095 89.6385 377.791C89.0487 379.658 88.4967 382.198 85.9849 381.614C84.3681 381.282 82.7384 379.272 82.1906 377.639C78.693 367.212 78.6712 356.359 79.8015 345.403C81.3857 329.975 85.8184 315.098 91.6322 300.498C92.4725 298.386 93.1673 296.229 93.9434 294.098C93.6321 293.946 93.3078 293.799 92.9965 293.648C92.3422 294.675 91.6026 295.663 91.0467 296.725C88.652 301.323 86.3898 305.971 83.9269 310.538C82.4667 313.262 80.3734 315.565 76.7924 315.246C73.2674 314.921 70.8606 312.795 70.4829 309.598C69.7437 303.252 69.1566 296.841 69.2068 290.432C69.2408 285.442 70.4943 280.419 70.8949 275.4C71.0187 273.784 70.6199 271.818 69.6637 270.564C67.5671 267.809 68.0309 265.783 71.6973 264.89C73.5284 264.437 75.4943 264.343 77.3756 264.384C83.5446 264.522 88.5142 262.249 92.5608 257.743C95.3204 254.664 98.271 251.723 101.031 248.644C105.721 243.424 107.146 237.186 107.58 230.756C107.637 229.849 106.419 228.333 105.476 228.111C101.567 227.202 100.505 224.638 100.312 221.258C99.9675 214.968 101.613 209.087 105.235 203.66C108.471 198.806 111.864 194.035 115.257 189.263C119.422 183.425 122.307 177.182 123.723 169.494C120.953 170.773 118.969 171.762 116.927 172.622C112.587 174.441 109.354 172.444 110.579 168.198C112.081 163.011 113.508 157.338 116.787 153.089C128.898 137.413 142.744 123.2 160.624 113.071C163.226 111.592 165.848 109.784 169.999 111.46C168.211 113.379 166.876 115.266 165.104 116.628C150.077 128.101 135.261 139.813 123.638 154.572C121.325 157.514 119.764 160.972 117.88 164.201L118.673 165.186C119.517 164.984 120.366 164.794 121.223 164.587C127.373 163.116 129.974 165.002 129.424 171C128.8 177.682 126.495 183.973 122.479 189.693C119.902 193.357 117.008 196.857 114.708 200.657C112.095 204.992 109.707 209.48 107.747 214.081C105.773 218.726 106.901 220.016 110.985 222.872C112.688 224.064 114.085 226.717 114.129 228.748C114.36 238.198 111.732 247.019 104.71 254.435C101.355 257.982 98.0031 261.583 94.3312 264.833C90.6813 268.062 86.3232 270.13 81.2887 270.742C80.2179 270.873 78.5466 271.931 78.3265 272.786C75.5264 283.683 74.5083 294.629 76.4577 305.575C76.6545 306.68 77.1498 307.725 78.4475 308.918C80.8535 304.396 83.1099 299.818 85.7077 295.393C87.2565 292.761 88.9703 290.06 91.2228 287.972C95.2844 284.201 98.627 285.018 99.4612 290.094C99.9966 293.372 99.7277 297.015 98.8802 300.314C95.3824 313.922 91.0775 327.41 87.9919 341.081C86.4943 347.706 86.9413 354.648 86.7022 361.444C86.6409 363.16 87.3033 364.875 87.6023 366.457C88.2511 366.536 88.5241 366.659 88.6982 366.574C97.4371 362.593 101.331 363.844 104.421 372.496C109.801 387.54 111.138 403.307 111.136 419.308C111.137 426.951 111.497 434.582 111.922 442.191C112.045 444.37 112.953 446.474 113.495 448.607L114.572 448.582C115.262 446.238 115.901 443.87 116.638 441.537C117.182 439.794 117.439 437.797 118.561 436.438C119.864 434.843 122.008 432.819 123.687 432.821C125.573 432.834 128.402 434.536 128.976 436.16C130.687 440.915 132.018 445.919 132.535 450.954C133.242 457.808 132.99 464.783 133.356 471.698C133.471 473.853 134.259 475.944 134.93 478.935C136.361 476.988 137.132 475.922 137.938 474.871C141.643 469.995 145.87 469.694 149.122 474.511C152.052 478.843 153.677 483.99 156.86 488.171C161.439 494.184 166.763 498.75 171.79 503.941C180.199 512.612 189.209 519.925 197.952 524.931C212.284 533.137 218.466 535.383 228.803 540.353C242.851 547.106 256.042 550.701 274.076 556.306C303.857 565.559 340.881 563.999 367.503 562.713C386.05 561.82 407.447 555.961 423.102 548.866C448.609 537.309 458.797 528.845 461.377 525.275C461.377 525.275 460.173 530.402 458.2 532.288C437.366 552.25 394.558 568.413 365.49 569.915C349.594 571.546 319.945 571.534 292.522 566.98C277.16 564.422 253.728 557.439 234.132 549.506C214.83 541.676 199.084 533.137 195.537 530.721C178.306 519.007 177.51 516.461 167.235 507.191C160.427 501.05 153.654 494.495 149.961 486.462C148.204 482.65 146.009 479.04 143.691 474.718L143.692 474.677Z" fill="#D7D7D7"/>
</g>
<defs>
<clipPath id="clip0_448_88">
<rect width="505.384" height="534.321" fill="white" transform="translate(0.385742 133.772) rotate(-18.544)"/>
</clipPath>
</defs>
</svg>
