<svg width="953" height="564" viewBox="0 0 953 564" fill="none" xmlns="http://www.w3.org/2000/svg">
<line x1="50.1401" x2="50.1401" y2="353.018" stroke="white"/>
<path d="M140.104 540.895C140.104 538.238 138.6 536.09 135.943 536.09H124.732V545.699H135.943C138.6 545.699 140.104 543.531 140.104 540.895ZM114.498 527.77H137.857C145.065 527.672 150.416 533.727 150.357 540.895C150.416 548.023 145.065 554.117 137.857 554.02H114.498V527.77ZM153.404 527.73H163.639V553.98H153.404V527.73ZM179.303 539.918H191.803C192.408 539.918 192.936 539.703 193.365 539.273C193.815 538.824 194.029 538.297 194.029 537.691C194.029 537.066 193.815 536.539 193.365 536.109C192.936 535.66 192.408 535.445 191.803 535.445H179.303V539.918ZM169.068 527.77H194.361C199.772 527.711 204.361 532.262 204.283 537.691C204.361 543.102 199.772 547.691 194.361 547.613H179.303V554.02H169.068V527.77ZM232.682 545.016H217.311V553.98H207.076V527.73H217.311V536.695H232.682V527.73H242.936V553.98H232.682V545.016ZM268.893 554.02H258.658V536.09H246.49V527.77H281.061V536.09H268.893V554.02ZM299.772 527.086C309.654 527.086 317.682 529.977 317.682 539.898V541.812C317.721 551.734 309.635 554.605 299.772 554.625C289.889 554.605 281.803 551.734 281.842 541.812V539.898C281.803 529.957 289.889 527.105 299.772 527.086ZM307.447 541.168V540.523C307.506 536.246 303.951 535.465 299.772 535.406C295.572 535.465 292.018 536.246 292.076 540.523V541.168C292.018 545.465 295.572 546.246 299.772 546.305C303.951 546.246 307.506 545.465 307.447 541.168ZM346.354 541.637V527.73H356.607V553.98H345.084L330.982 537.945V553.98H320.748V527.73H334.83L346.354 541.637ZM378.092 544.059V539.566H395.924V554.625H390.807L390.299 550.543C387.252 553.551 382.623 554.625 378.17 554.625C368.287 554.586 360.201 551.734 360.24 541.812V539.898C360.201 529.957 368.287 527.105 378.17 527.086C387.272 527.086 394.772 529.566 395.924 537.652H385.045C384.4 536.773 383.463 536.188 382.252 535.875C381.041 535.562 379.674 535.406 378.17 535.406C373.971 535.465 370.416 536.246 370.475 540.523V541.168C370.416 545.484 373.971 546.227 378.17 546.285C382.213 546.285 384.791 546.051 386.334 544.059H378.092Z" fill="#E8E5E5"/>
<line x1="0.243652" y1="543.5" x2="89.8003" y2="543.5" stroke="white"/>
<path d="M634.104 543.5H952.554" stroke="white"/>
<path d="M435.237 547.65L436.197 548.17C435.744 548.803 435.167 549.31 434.467 549.69C433.774 550.07 433.021 550.26 432.207 550.26C431.287 550.26 430.447 550.023 429.687 549.55C428.934 549.077 428.331 548.443 427.877 547.65C427.431 546.85 427.207 545.967 427.207 545C427.207 544.267 427.337 543.583 427.597 542.95C427.857 542.31 428.214 541.75 428.667 541.27C429.127 540.783 429.661 540.403 430.267 540.13C430.874 539.857 431.521 539.72 432.207 539.72C433.021 539.72 433.774 539.91 434.467 540.29C435.167 540.67 435.744 541.18 436.197 541.82L435.237 542.33C434.857 541.837 434.397 541.46 433.857 541.2C433.317 540.933 432.767 540.8 432.207 540.8C431.474 540.8 430.811 540.993 430.217 541.38C429.624 541.76 429.154 542.27 428.807 542.91C428.461 543.543 428.287 544.24 428.287 545C428.287 545.767 428.464 546.467 428.817 547.1C429.171 547.733 429.644 548.24 430.237 548.62C430.831 548.993 431.487 549.18 432.207 549.18C432.814 549.18 433.384 549.037 433.917 548.75C434.451 548.463 434.891 548.097 435.237 547.65ZM438.003 550V540H439.083V541.53C439.443 540.977 439.919 540.537 440.513 540.21C441.106 539.883 441.753 539.72 442.453 539.72C442.846 539.72 443.223 539.77 443.583 539.87L443.133 540.93C442.846 540.85 442.566 540.81 442.293 540.81C441.706 540.81 441.169 540.953 440.683 541.24C440.196 541.527 439.806 541.913 439.513 542.4C439.226 542.887 439.083 543.427 439.083 544.02V550H438.003ZM448.731 550.26C447.811 550.26 446.971 550.023 446.211 549.55C445.458 549.077 444.854 548.443 444.401 547.65C443.954 546.85 443.731 545.967 443.731 545C443.731 544.267 443.861 543.583 444.121 542.95C444.381 542.31 444.738 541.75 445.191 541.27C445.651 540.783 446.184 540.403 446.791 540.13C447.398 539.857 448.044 539.72 448.731 539.72C449.458 539.72 450.128 539.863 450.741 540.15C451.361 540.43 451.894 540.827 452.341 541.34C452.788 541.853 453.131 542.46 453.371 543.16C453.611 543.853 453.721 544.613 453.701 545.44H444.861C444.934 546.153 445.148 546.793 445.501 547.36C445.861 547.92 446.321 548.363 446.881 548.69C447.441 549.01 448.058 549.173 448.731 549.18C449.471 549.18 450.138 548.987 450.731 548.6C451.324 548.207 451.801 547.67 452.161 546.99L453.251 547.24C452.851 548.127 452.248 548.853 451.441 549.42C450.634 549.98 449.731 550.26 448.731 550.26ZM444.831 544.52H452.611C452.571 543.833 452.371 543.203 452.011 542.63C451.658 542.05 451.194 541.587 450.621 541.24C450.048 540.893 449.418 540.72 448.731 540.72C448.044 540.72 447.418 540.89 446.851 541.23C446.284 541.57 445.821 542.03 445.461 542.61C445.108 543.183 444.898 543.82 444.831 544.52ZM463.737 540H464.817V550H463.737L463.707 547.95C463.367 548.643 462.881 549.203 462.247 549.63C461.621 550.05 460.867 550.26 459.987 550.26C459.261 550.26 458.577 550.123 457.937 549.85C457.304 549.57 456.744 549.19 456.257 548.71C455.771 548.223 455.391 547.663 455.117 547.03C454.844 546.39 454.707 545.703 454.707 544.97C454.707 544.243 454.841 543.563 455.107 542.93C455.381 542.297 455.757 541.74 456.237 541.26C456.717 540.773 457.274 540.397 457.907 540.13C458.541 539.857 459.217 539.72 459.937 539.72C460.824 539.72 461.591 539.937 462.237 540.37C462.891 540.797 463.401 541.357 463.767 542.05L463.737 540ZM459.977 549.2C460.744 549.2 461.401 549.013 461.947 548.64C462.501 548.26 462.924 547.75 463.217 547.11C463.511 546.47 463.657 545.767 463.657 545C463.657 544.213 463.507 543.503 463.207 542.87C462.914 542.23 462.491 541.723 461.937 541.35C461.391 540.97 460.737 540.78 459.977 540.78C459.204 540.78 458.501 540.97 457.867 541.35C457.241 541.73 456.741 542.24 456.367 542.88C455.994 543.52 455.807 544.227 455.807 545C455.807 545.787 455.997 546.497 456.377 547.13C456.764 547.763 457.274 548.267 457.907 548.64C458.541 549.013 459.231 549.2 459.977 549.2ZM471.841 541.08H469.311L469.301 550H468.221L468.231 541.08H466.321V540H468.231L468.221 536.86H469.301L469.311 540H471.841V541.08ZM473.569 540H474.649V550H473.569V540ZM474.119 538.11C473.932 538.11 473.772 538.05 473.639 537.93C473.512 537.803 473.449 537.647 473.449 537.46C473.449 537.273 473.512 537.12 473.639 537C473.772 536.873 473.932 536.81 474.119 536.81C474.299 536.81 474.452 536.873 474.579 537C474.712 537.12 474.779 537.273 474.779 537.46C474.779 537.647 474.716 537.803 474.589 537.93C474.462 538.05 474.306 538.11 474.119 538.11ZM481.378 550H480.018L476.368 539.97H477.518L480.698 548.72L483.878 539.97H485.028L481.378 550ZM490.762 550.26C489.842 550.26 489.002 550.023 488.242 549.55C487.489 549.077 486.885 548.443 486.432 547.65C485.985 546.85 485.762 545.967 485.762 545C485.762 544.267 485.892 543.583 486.152 542.95C486.412 542.31 486.769 541.75 487.222 541.27C487.682 540.783 488.215 540.403 488.822 540.13C489.429 539.857 490.075 539.72 490.762 539.72C491.489 539.72 492.159 539.863 492.772 540.15C493.392 540.43 493.925 540.827 494.372 541.34C494.819 541.853 495.162 542.46 495.402 543.16C495.642 543.853 495.752 544.613 495.732 545.44H486.892C486.965 546.153 487.179 546.793 487.532 547.36C487.892 547.92 488.352 548.363 488.912 548.69C489.472 549.01 490.089 549.173 490.762 549.18C491.502 549.18 492.169 548.987 492.762 548.6C493.355 548.207 493.832 547.67 494.192 546.99L495.282 547.24C494.882 548.127 494.279 548.853 493.472 549.42C492.665 549.98 491.762 550.26 490.762 550.26ZM486.862 544.52H494.642C494.602 543.833 494.402 543.203 494.042 542.63C493.689 542.05 493.225 541.587 492.652 541.24C492.079 540.893 491.449 540.72 490.762 540.72C490.075 540.72 489.449 540.89 488.882 541.23C488.315 541.57 487.852 542.03 487.492 542.61C487.139 543.183 486.929 543.82 486.862 544.52ZM506.229 550H505.089L501.739 540H502.789L505.679 548.55L508.549 540H509.739L512.609 548.55L515.479 540H516.549L513.189 550H512.039L509.129 541.36L506.229 550ZM522.286 550.26C521.366 550.26 520.526 550.023 519.766 549.55C519.012 549.077 518.409 548.443 517.956 547.65C517.509 546.85 517.286 545.967 517.286 545C517.286 544.267 517.416 543.583 517.676 542.95C517.936 542.31 518.292 541.75 518.746 541.27C519.206 540.783 519.739 540.403 520.346 540.13C520.952 539.857 521.599 539.72 522.286 539.72C523.012 539.72 523.682 539.863 524.296 540.15C524.916 540.43 525.449 540.827 525.896 541.34C526.342 541.853 526.686 542.46 526.926 543.16C527.166 543.853 527.276 544.613 527.256 545.44H518.416C518.489 546.153 518.702 546.793 519.056 547.36C519.416 547.92 519.876 548.363 520.436 548.69C520.996 549.01 521.612 549.173 522.286 549.18C523.026 549.18 523.692 548.987 524.286 548.6C524.879 548.207 525.356 547.67 525.716 546.99L526.806 547.24C526.406 548.127 525.802 548.853 524.996 549.42C524.189 549.98 523.286 550.26 522.286 550.26ZM518.386 544.52H526.166C526.126 543.833 525.926 543.203 525.566 542.63C525.212 542.05 524.749 541.587 524.176 541.24C523.602 540.893 522.972 540.72 522.286 540.72C521.599 540.72 520.972 540.89 520.406 541.23C519.839 541.57 519.376 542.03 519.016 542.61C518.662 543.183 518.452 543.82 518.386 544.52ZM533.79 539.72C534.757 539.72 535.637 539.957 536.43 540.43C537.23 540.903 537.867 541.54 538.34 542.34C538.814 543.133 539.05 544.017 539.05 544.99C539.05 545.717 538.914 546.4 538.64 547.04C538.367 547.673 537.987 548.233 537.5 548.72C537.02 549.2 536.464 549.577 535.83 549.85C535.197 550.123 534.517 550.26 533.79 550.26C532.904 550.26 532.14 550.047 531.5 549.62C530.867 549.193 530.374 548.633 530.02 547.94V550H528.94V535H530.02V542.04C530.374 541.347 530.867 540.787 531.5 540.36C532.14 539.933 532.904 539.72 533.79 539.72ZM533.78 549.2C534.554 549.2 535.254 549.01 535.88 548.63C536.514 548.25 537.017 547.743 537.39 547.11C537.77 546.47 537.96 545.763 537.96 544.99C537.96 544.203 537.767 543.493 537.38 542.86C536.994 542.22 536.484 541.713 535.85 541.34C535.224 540.967 534.534 540.78 533.78 540.78C533.014 540.78 532.354 540.97 531.8 541.35C531.254 541.73 530.834 542.24 530.54 542.88C530.247 543.52 530.1 544.223 530.1 544.99C530.1 545.777 530.247 546.487 530.54 547.12C530.84 547.753 531.264 548.26 531.81 548.64C532.364 549.013 533.02 549.2 533.78 549.2ZM554.089 540H555.169V550H554.089L554.059 547.95C553.719 548.643 553.232 549.203 552.599 549.63C551.972 550.05 551.219 550.26 550.339 550.26C549.612 550.26 548.929 550.123 548.289 549.85C547.656 549.57 547.096 549.19 546.609 548.71C546.122 548.223 545.742 547.663 545.469 547.03C545.196 546.39 545.059 545.703 545.059 544.97C545.059 544.243 545.192 543.563 545.459 542.93C545.732 542.297 546.109 541.74 546.589 541.26C547.069 540.773 547.626 540.397 548.259 540.13C548.892 539.857 549.569 539.72 550.289 539.72C551.176 539.72 551.942 539.937 552.589 540.37C553.242 540.797 553.752 541.357 554.119 542.05L554.089 540ZM550.329 549.2C551.096 549.2 551.752 549.013 552.299 548.64C552.852 548.26 553.276 547.75 553.569 547.11C553.862 546.47 554.009 545.767 554.009 545C554.009 544.213 553.859 543.503 553.559 542.87C553.266 542.23 552.842 541.723 552.289 541.35C551.742 540.97 551.089 540.78 550.329 540.78C549.556 540.78 548.852 540.97 548.219 541.35C547.592 541.73 547.092 542.24 546.719 542.88C546.346 543.52 546.159 544.227 546.159 545C546.159 545.787 546.349 546.497 546.729 547.13C547.116 547.763 547.626 548.267 548.259 548.64C548.892 549.013 549.582 549.2 550.329 549.2ZM565.078 540H566.158V550.42C566.158 551.04 566.021 551.623 565.748 552.17C565.481 552.723 565.118 553.21 564.658 553.63C564.198 554.057 563.674 554.39 563.088 554.63C562.508 554.877 561.908 555 561.288 555C560.594 555 559.924 554.837 559.278 554.51C558.631 554.19 558.071 553.76 557.598 553.22C557.131 552.68 556.808 552.09 556.628 551.45L557.628 550.99C557.748 551.53 557.994 552.02 558.368 552.46C558.741 552.907 559.184 553.26 559.698 553.52C560.218 553.78 560.748 553.91 561.288 553.91C561.768 553.91 562.234 553.817 562.688 553.63C563.141 553.443 563.548 553.187 563.908 552.86C564.268 552.54 564.551 552.17 564.758 551.75C564.971 551.33 565.078 550.887 565.078 550.42V547.97C564.724 548.65 564.234 549.203 563.608 549.63C562.981 550.05 562.251 550.26 561.418 550.26C560.724 550.26 560.071 550.123 559.458 549.85C558.844 549.577 558.308 549.2 557.848 548.72C557.388 548.233 557.024 547.673 556.758 547.04C556.498 546.407 556.368 545.727 556.368 545C556.368 544.273 556.498 543.593 556.758 542.96C557.024 542.32 557.388 541.76 557.848 541.28C558.308 540.793 558.844 540.413 559.458 540.14C560.071 539.867 560.724 539.73 561.418 539.73C562.251 539.73 562.981 539.94 563.608 540.36C564.234 540.773 564.724 541.327 565.078 542.02V540ZM561.428 549.2C562.174 549.2 562.814 549.007 563.348 548.62C563.888 548.233 564.301 547.72 564.588 547.08C564.881 546.44 565.028 545.747 565.028 545C565.028 544.233 564.881 543.533 564.588 542.9C564.294 542.26 563.878 541.747 563.338 541.36C562.798 540.973 562.161 540.78 561.428 540.78C560.694 540.78 560.028 540.97 559.428 541.35C558.828 541.73 558.351 542.24 557.998 542.88C557.644 543.52 557.468 544.227 557.468 545C557.468 545.78 557.648 546.487 558.008 547.12C558.368 547.753 558.848 548.26 559.448 548.64C560.048 549.013 560.708 549.2 561.428 549.2ZM572.891 550.26C571.971 550.26 571.131 550.023 570.371 549.55C569.618 549.077 569.014 548.443 568.561 547.65C568.114 546.85 567.891 545.967 567.891 545C567.891 544.267 568.021 543.583 568.281 542.95C568.541 542.31 568.898 541.75 569.351 541.27C569.811 540.783 570.344 540.403 570.951 540.13C571.558 539.857 572.204 539.72 572.891 539.72C573.618 539.72 574.288 539.863 574.901 540.15C575.521 540.43 576.054 540.827 576.501 541.34C576.948 541.853 577.291 542.46 577.531 543.16C577.771 543.853 577.881 544.613 577.861 545.44H569.021C569.094 546.153 569.308 546.793 569.661 547.36C570.021 547.92 570.481 548.363 571.041 548.69C571.601 549.01 572.218 549.173 572.891 549.18C573.631 549.18 574.298 548.987 574.891 548.6C575.484 548.207 575.961 547.67 576.321 546.99L577.411 547.24C577.011 548.127 576.408 548.853 575.601 549.42C574.794 549.98 573.891 550.26 572.891 550.26ZM568.991 544.52H576.771C576.731 543.833 576.531 543.203 576.171 542.63C575.818 542.05 575.354 541.587 574.781 541.24C574.208 540.893 573.578 540.72 572.891 540.72C572.204 540.72 571.578 540.89 571.011 541.23C570.444 541.57 569.981 542.03 569.621 542.61C569.268 543.183 569.058 543.82 568.991 544.52ZM588.184 543.85V550H587.104V544.02C587.104 543.427 586.961 542.887 586.674 542.4C586.388 541.913 586.001 541.527 585.514 541.24C585.028 540.953 584.488 540.81 583.894 540.81C583.308 540.81 582.771 540.953 582.284 541.24C581.798 541.527 581.408 541.913 581.114 542.4C580.828 542.887 580.684 543.427 580.684 544.02V550H579.604V540H580.684V541.53C581.044 540.977 581.521 540.537 582.114 540.21C582.708 539.883 583.354 539.72 584.054 539.72C584.821 539.72 585.514 539.907 586.134 540.28C586.761 540.647 587.258 541.143 587.624 541.77C587.998 542.397 588.184 543.09 588.184 543.85ZM597.425 547.65L598.385 548.17C597.932 548.803 597.355 549.31 596.655 549.69C595.962 550.07 595.208 550.26 594.395 550.26C593.475 550.26 592.635 550.023 591.875 549.55C591.122 549.077 590.518 548.443 590.065 547.65C589.618 546.85 589.395 545.967 589.395 545C589.395 544.267 589.525 543.583 589.785 542.95C590.045 542.31 590.402 541.75 590.855 541.27C591.315 540.783 591.848 540.403 592.455 540.13C593.062 539.857 593.708 539.72 594.395 539.72C595.208 539.72 595.962 539.91 596.655 540.29C597.355 540.67 597.932 541.18 598.385 541.82L597.425 542.33C597.045 541.837 596.585 541.46 596.045 541.2C595.505 540.933 594.955 540.8 594.395 540.8C593.662 540.8 592.998 540.993 592.405 541.38C591.812 541.76 591.342 542.27 590.995 542.91C590.648 543.543 590.475 544.24 590.475 545C590.475 545.767 590.652 546.467 591.005 547.1C591.358 547.733 591.832 548.24 592.425 548.62C593.018 548.993 593.675 549.18 594.395 549.18C595.002 549.18 595.572 549.037 596.105 548.75C596.638 548.463 597.078 548.097 597.425 547.65ZM606.845 540H607.975L602.515 555H601.365L603.185 550L599.595 540H600.775L603.725 548.51L606.845 540ZM609.561 550.26C609.381 550.26 609.228 550.193 609.101 550.06C608.975 549.933 608.911 549.777 608.911 549.59C608.911 549.417 608.975 549.267 609.101 549.14C609.228 549.007 609.381 548.94 609.561 548.94C609.748 548.94 609.905 549.007 610.031 549.14C610.165 549.267 610.231 549.417 610.231 549.59C610.231 549.777 610.165 549.933 610.031 550.06C609.905 550.193 609.748 550.26 609.561 550.26Z" fill="white"/>
</svg>
