<svg width="155" height="1269" viewBox="0 0 155 1269" fill="none" xmlns="http://www.w3.org/2000/svg">
<rect y="1269" width="1269" height="155" transform="rotate(-90 0 1269)" fill="#E0E0E0"/>
<circle cx="78.0923" cy="169.568" r="41.4077" transform="rotate(90 78.0923 169.568)" stroke="black"/>
<line x1="35" y1="421.48" x2="116.731" y2="421.48" stroke="black"/>
<line x1="97.9834" y1="714.594" x2="35.5992" y2="714.594" stroke="black"/>
<path d="M119.407 632.484L119.407 693.948" stroke="black"/>
<line x1="97.4834" y1="714.094" x2="97.4834" y2="654.541" stroke="black"/>
<line y1="-0.5" x2="31.3512" y2="-0.5" transform="matrix(-0.710661 0.703535 -0.710661 -0.703535 118.033 632.484)" stroke="black"/>
<line x1="97.9834" y1="655.04" x2="35.5992" y2="655.04" stroke="black"/>
<line x1="36.0928" y1="656.746" x2="36.0928" y2="716.299" stroke="black"/>
<line y1="-0.5" x2="31.3498" y2="-0.5" transform="matrix(-0.701217 0.712947 -0.701217 -0.712948 57.582 691.742)" stroke="black"/>
<line y1="-0.5" x2="31.3512" y2="-0.5" transform="matrix(-0.710655 0.703541 -0.710655 -0.703541 57.8779 632.483)" stroke="black"/>
<line x1="57.8779" y1="634.189" x2="118.034" y2="634.189" stroke="black"/>
<line x1="58.082" y1="635.278" x2="58.082" y2="693.948" stroke="black"/>
<line y1="-0.5" x2="31.3498" y2="-0.5" transform="matrix(-0.701217 0.712947 -0.701217 -0.712948 117.733 691.742)" stroke="black"/>
<line x1="118.033" y1="691.655" x2="60.3278" y2="691.655" stroke="black"/>
</svg>
